<svg width="300" height="300" viewBox="0 0 300 300" fill="none" xmlns="http://www.w3.org/2000/svg">
<g clip-path="url(#clip0_110_23)">
<path d="M150 0C189.782 0 227.936 15.8035 256.066 43.934C284.196 72.0644 300 110.218 300 150C300 189.782 284.196 227.936 256.066 256.066C227.936 284.196 189.782 300 150 300C110.218 300 72.0644 284.196 43.934 256.066C15.8035 227.936 0 189.782 0 150C0 110.218 15.8035 72.0644 43.934 43.934C72.0644 15.8035 110.218 0 150 0V0ZM150 24.5C81.075 24.5 25 80.575 25 150C24.9678 176.386 33.2532 202.112 48.6787 223.52C64.1041 244.928 85.8848 260.929 110.925 269.25C111.298 269.306 111.674 269.348 112.05 269.375C117.125 269.625 119.025 266.15 119.025 263.125L118.85 241.775C84.1 249.35 76.75 224.925 76.75 224.925C71.075 210.425 62.875 206.575 62.875 206.575C51.525 198.775 63.725 198.925 63.725 198.925C72.85 199.575 78.825 206.125 81.425 209.675L82.875 211.875C94.025 231.05 112.125 225.525 119.25 222.325C120.4 214.2 123.6 208.675 127.175 205.525C99.425 202.35 70.25 191.575 70.25 143.475C70.25 129.775 75.125 118.575 83.125 109.775L82.375 107.65C80.775 102.575 78.575 91.2 84.35 76.55L85.35 76.375C88.45 75.975 99.05 76.05 118.725 89.425C128.917 86.6373 139.434 85.2166 150 85.2C160.625 85.25 171.325 86.65 181.3 89.45C205.175 73.2 215.65 76.55 215.65 76.55C222.45 93.85 218.15 106.6 216.9 109.8C224.9 118.55 229.725 129.775 229.725 143.475C229.725 191.725 200.5 202.325 172.65 205.425C177.15 209.3 181.15 216.975 181.15 228.675L181 263.125C181 266.375 183.125 270.175 189.075 269.25C214.115 260.929 235.896 244.928 251.321 223.52C266.747 202.112 275.032 176.386 275 150C275 80.575 218.925 24.5 150 24.5Z" fill="#02315E"/>
</g>
<defs>
<clipPath id="clip0_110_23">
<rect width="300" height="300" fill="white"/>
</clipPath>
</defs>
</svg>
