<svg width="300" height="300" viewBox="0 0 300 300" fill="none" xmlns="http://www.w3.org/2000/svg">
<g clip-path="url(#clip0_110_48)">
<path d="M150 0C67.1537 0 0 67.1537 0 150C0 232.846 67.1537 300 150 300C232.846 300 300 232.846 300 150C300 67.1537 232.846 0 150 0ZM150 276.562C80.0994 276.562 23.4375 219.901 23.4375 150C23.4375 80.0994 80.0994 23.4375 150 23.4375C219.901 23.4375 276.562 80.0994 276.562 150C276.562 219.901 219.901 276.562 150 276.562Z" fill="#02315E"/>
<path d="M218.919 87.6685C218.865 87.5625 218.774 87.4794 218.663 87.4342C205.899 81.5777 192.429 77.4015 178.59 75.0102C178.464 74.9869 178.334 75.0037 178.219 75.0584C178.103 75.1131 178.008 75.2029 177.946 75.3149C176.112 78.644 174.447 82.0636 172.957 85.5605C158.04 83.296 142.866 83.296 127.948 85.5605C126.449 82.0547 124.757 78.6343 122.881 75.3149C122.816 75.2053 122.721 75.1176 122.606 75.0633C122.491 75.0089 122.362 74.9905 122.237 75.0102C108.396 77.3965 94.9253 81.573 82.1624 87.4345C82.0532 87.4808 81.961 87.5599 81.8986 87.6608C56.3754 125.776 49.3837 162.955 52.8136 199.673C52.8232 199.763 52.8509 199.85 52.8949 199.929C52.9389 200.008 52.9983 200.077 53.0697 200.133C67.9316 211.137 84.5548 219.537 102.23 224.973C102.354 225.01 102.487 225.009 102.611 224.968C102.734 224.928 102.843 224.851 102.921 224.747C106.717 219.581 110.081 214.112 112.978 208.393C113.018 208.315 113.04 208.229 113.044 208.141C113.049 208.053 113.034 207.965 113.002 207.884C112.97 207.802 112.92 207.728 112.857 207.666C112.795 207.605 112.719 207.557 112.637 207.527C107.332 205.497 102.197 203.051 97.279 200.21C97.1897 200.158 97.1146 200.084 97.0605 199.995C97.0064 199.907 96.9749 199.807 96.9688 199.703C96.9627 199.6 96.9821 199.496 97.0254 199.402C97.0687 199.308 97.1345 199.226 97.217 199.163C98.249 198.39 99.2816 197.586 100.267 196.774C100.354 196.702 100.46 196.655 100.573 196.64C100.685 196.625 100.8 196.642 100.903 196.688C133.123 211.392 168.005 211.392 199.843 196.688C199.947 196.639 200.062 196.62 200.177 196.634C200.291 196.647 200.398 196.693 200.487 196.766C201.473 197.578 202.505 198.39 203.545 199.163C203.628 199.225 203.694 199.307 203.738 199.401C203.782 199.495 203.802 199.598 203.797 199.701C203.792 199.805 203.761 199.905 203.708 199.994C203.654 200.083 203.58 200.157 203.491 200.21C198.584 203.075 193.444 205.52 188.126 207.519C188.043 207.551 187.968 207.599 187.906 207.662C187.843 207.724 187.794 207.799 187.763 207.881C187.731 207.964 187.717 208.052 187.722 208.14C187.727 208.229 187.75 208.315 187.791 208.393C190.736 214.08 194.095 219.543 197.84 224.738C197.916 224.844 198.024 224.924 198.148 224.966C198.272 225.008 198.406 225.01 198.531 224.972C216.238 219.554 232.89 211.154 247.771 200.133C247.843 200.08 247.903 200.012 247.948 199.934C247.992 199.856 248.019 199.77 248.027 199.68C252.133 157.231 241.152 120.357 218.919 87.6685ZM117.79 177.315C108.089 177.315 100.096 168.413 100.096 157.481C100.096 146.548 107.934 137.645 117.79 137.645C127.722 137.645 135.638 146.625 135.483 157.48C135.483 168.413 127.644 177.315 117.79 177.315ZM183.207 177.315C173.507 177.315 165.514 168.413 165.514 157.481C165.514 146.548 173.352 137.645 183.207 137.645C193.14 137.645 201.056 146.625 200.9 157.48C200.9 168.413 193.14 177.315 183.207 177.315Z" fill="#02315E"/>
</g>
<defs>
<clipPath id="clip0_110_48">
<rect width="300" height="300" fill="white"/>
</clipPath>
</defs>
</svg>
