<svg width="300" height="300" viewBox="0 0 300 300" fill="none" xmlns="http://www.w3.org/2000/svg">
<g clip-path="url(#clip0_110_3)">
<path d="M150 0C67.1537 0 0 67.1537 0 150C0 232.846 67.1537 300 150 300C232.846 300 300 232.846 300 150C300 67.1537 232.846 0 150 0ZM150 276.562C80.0994 276.562 23.4375 219.901 23.4375 150C23.4375 80.0994 80.0994 23.4375 150 23.4375C219.901 23.4375 276.562 80.0994 276.562 150C276.562 219.901 219.901 276.562 150 276.562Z" fill="#02315E"/>
<path d="M185.065 116.226C185.166 115.576 185.211 114.971 185.211 114.413C185.211 109.259 181.989 106.695 175.543 106.695C172.449 106.695 170.361 107.226 169.281 108.27C168.182 109.332 167.432 111.429 166.992 114.569C164.52 111.09 162.03 108.746 159.521 107.528C157.214 106.42 153.909 105.871 149.634 105.871C138.62 105.871 129.062 111.474 120.996 122.671C113.562 132.971 109.854 143.975 109.854 155.677C109.854 164.814 112.262 172.833 117.087 179.755C122.433 187.382 129.428 191.19 138.043 191.19C145.423 191.19 152.509 188.544 159.293 183.253C162.352 188.544 167.579 191.19 174.957 191.19C188.929 191.19 200.895 185.295 210.828 173.493C220.276 162.268 225 149.359 225 134.784C225 117.352 217.666 102.814 203 91.1771C189.414 80.4018 173.877 75 156.354 75C133.557 75 114.423 82.2053 98.9227 96.6246C82.974 111.493 75 130.463 75 153.552C75 177.145 83.1756 195.264 99.5086 207.915C114.175 219.315 133.411 225 157.233 225C167.377 225 177.265 223.416 186.914 220.23C197.497 216.76 206.204 211.816 213.043 205.407C215.251 203.293 217.375 200.72 219.388 197.699C221.906 194.009 223.151 191.034 223.151 188.773C223.151 187.061 222.555 185.532 221.347 184.186C220.148 182.849 218.701 182.181 217.036 182.181C213.877 182.181 211.222 183.298 209.053 185.504C205.473 189.349 202.809 192.279 201.087 194.293C189.368 204.529 174.811 209.647 157.379 209.647C138.684 209.647 123.724 205.06 112.509 195.887C100.25 185.862 94.1256 171.497 94.1256 152.803C94.1256 134.657 99.9486 119.496 111.621 107.319C123.285 95.151 137.979 89.0625 155.685 89.0625C169.62 89.0625 181.201 93.0176 190.448 100.946C200.354 109.351 205.288 120.538 205.288 134.491C205.288 141.797 204.043 148.608 201.526 154.898C198.724 161.957 194.658 167.395 189.349 171.221C185.358 174.087 182.235 175.525 179.974 175.525C177.512 175.525 176.285 174.37 176.285 172.055C176.285 171.093 176.916 166.662 178.207 158.742L185.065 116.226ZM156.647 157.956C152.115 170.526 147.29 176.816 142.181 176.816C134.546 176.816 130.728 171.946 130.728 162.195C130.728 154.624 132.916 146.1 137.31 136.597C142.428 125.381 148.251 119.779 154.798 119.779C157.508 119.779 159.521 121.243 160.849 124.164C161.93 126.397 162.47 129.053 162.47 132.129C162.469 138.703 160.537 147.308 156.647 157.956Z" fill="#02315E"/>
</g>
<defs>
<clipPath id="clip0_110_3">
<rect width="300" height="300" fill="white"/>
</clipPath>
</defs>
</svg>
