<svg width="300" height="300" viewBox="0 0 300 300" fill="none" xmlns="http://www.w3.org/2000/svg">
<g clip-path="url(#clip0_110_25)">
<path d="M150 0C67.1537 0 0 67.1537 0 150C0 232.846 67.1537 300 150 300C232.846 300 300 232.846 300 150C300 67.1537 232.846 0 150 0ZM150 276.562C80.0994 276.562 23.4375 219.901 23.4375 150C23.4375 80.0994 80.0994 23.4375 150 23.4375C219.901 23.4375 276.562 80.0994 276.562 150C276.562 219.901 219.901 276.562 150 276.562Z" fill="#02315E"/>
<path d="M191.675 224.982C195.016 224.991 225 202.817 225 199.988C225 197.159 191.446 176.02 188.544 176.02C185.641 176.02 175.9 187.703 173.273 189.002C170.636 190.303 154.23 189.835 135.947 171.553C117.654 153.278 111.411 132.231 111.411 128.926C111.411 125.62 126.663 115.413 127.085 113.014C127.506 110.615 106.979 75.0006 103.647 75.0006C100.315 75.0006 75 105.762 75 108.325C75 110.889 77.3162 143.866 119.074 185.614C160.831 227.362 188.333 224.964 191.675 224.982Z" fill="#02315E"/>
</g>
<defs>
<clipPath id="clip0_110_25">
<rect width="300" height="300" fill="white"/>
</clipPath>
</defs>
</svg>
